<?xml version="1.0" encoding="UTF-8"?>
<!DOCTYPE svg PUBLIC "-//W3C//DTD SVG 1.1//EN" "http://www.w3.org/Graphics/SVG/1.1/DTD/svg11.dtd">
<svg version="1.1" xmlns="http://www.w3.org/2000/svg" xmlns:xlink="http://www.w3.org/1999/xlink" x="0" y="0" width="100" height="100" viewBox="0, 0, 100, 100">
  <g id="Layer_1">
    <path d="M87.395,13.797 C77.005,2.68 60.16,2.68 49.77,13.797 C39.38,2.68 22.535,2.68 12.145,13.797 C1.755,24.914 1.755,42.938 12.145,54.056 L49.77,94.314 L87.395,54.056 C97.785,42.938 97.785,24.914 87.395,13.797 z M83.632,17.823 C91.944,26.716 91.944,41.136 83.632,50.03 L79.87,54.056 L76.108,58.081 L49.77,86.262 L23.433,58.081 L19.67,54.056 L15.908,50.03 C7.596,41.136 7.596,26.716 15.908,17.823 C24.22,8.929 37.696,8.929 46.008,17.823 L49.77,21.849 L53.532,17.823 C61.844,8.929 75.321,8.929 83.632,17.823 z" fill="#A6A6A6"/>
    <path d="M87.395,13.797 C77.005,2.68 60.16,2.68 49.77,13.797 C39.38,2.68 22.535,2.68 12.145,13.797 C1.755,24.914 1.755,42.938 12.145,54.056 L49.77,94.314 L87.395,54.056 C97.785,42.938 97.785,24.914 87.395,13.797 z M83.632,17.823 C91.944,26.716 91.944,41.136 83.632,50.03 L79.87,54.056 L76.108,58.081 L49.77,86.262 L23.433,58.081 L19.67,54.056 L15.908,50.03 C7.596,41.136 7.596,26.716 15.908,17.823 C24.22,8.929 37.696,8.929 46.008,17.823 L49.77,21.849 L53.532,17.823 C61.844,8.929 75.321,8.929 83.632,17.823 z" fill-opacity="0" stroke="#FFFFFF" stroke-width="7" stroke-linecap="square"/>
  </g>
</svg>
