<?xml version="1.0" encoding="UTF-8"?>
<!DOCTYPE svg PUBLIC "-//W3C//DTD SVG 1.1//EN" "http://www.w3.org/Graphics/SVG/1.1/DTD/svg11.dtd">
<svg version="1.1" xmlns="http://www.w3.org/2000/svg" xmlns:xlink="http://www.w3.org/1999/xlink" x="0" y="0" width="33.749" height="33.749" viewBox="0, 0, 33.749, 33.749">
  <g id="Layer_1">
    <path d="M7.337,4.809 C4.817,4.844 2.793,6.897 2.792,9.417 L2.792,29.009 C2.791,31.556 4.855,33.622 7.402,33.622 L26.997,33.622 C29.544,33.622 31.608,31.556 31.607,29.009 L31.607,9.417 C31.606,6.889 29.57,4.833 27.042,4.809 L19.505,4.809 L19.505,7.114 L27.044,7.114 C28.299,7.138 29.303,8.162 29.304,9.417 L29.304,29.009 C29.305,29.621 29.062,30.208 28.63,30.641 C28.198,31.073 27.611,31.317 26.999,31.317 L7.405,31.317 C6.793,31.317 6.206,31.073 5.774,30.641 C5.341,30.208 5.099,29.621 5.099,29.009 L5.099,9.417 C5.1,8.165 6.099,7.143 7.35,7.114 L14.894,7.114 L14.894,4.809 z" fill="#000000" id="rect1221-7"/>
    <path d="M16.047,0.198 L16.047,15.759 L13.742,15.759 L17.199,22.672 L20.657,15.756 L18.352,15.756 L18.352,0.198 z" fill="#000000" id="rect5057"/>
  </g>
</svg>
